<svg width="15" height="15" viewBox="0 0 15 15" fill="none" xmlns="http://www.w3.org/2000/svg">
<mask id="path-1-inside-1_359_2" fill="white">
<path d="M14.8703 14.235L11.2242 10.5898C12.2023 9.46563 12.7944 7.99889 12.7944 6.39579C12.7944 2.86696 9.92349 0 6.39721 0C2.8676 0 0 2.87029 0 6.39579C0 9.92129 2.87093 12.7916 6.39721 12.7916C8.00067 12.7916 9.46773 12.1996 10.5922 11.2217L14.2382 14.867C14.3247 14.9534 14.4411 15 14.5542 15C14.6673 15 14.7838 14.9568 14.8703 14.867C15.0432 14.694 15.0432 14.408 14.8703 14.235ZM0.894877 6.39579C0.894877 3.36253 3.36327 0.898004 6.39388 0.898004C9.42781 0.898004 11.8929 3.36585 11.8929 6.39579C11.8929 9.42572 9.42781 11.8969 6.39388 11.8969C3.36327 11.8969 0.894877 9.42905 0.894877 6.39579Z"/>
</mask>
<path d="M14.8703 14.235L11.2242 10.5898C12.2023 9.46563 12.7944 7.99889 12.7944 6.39579C12.7944 2.86696 9.92349 0 6.39721 0C2.8676 0 0 2.87029 0 6.39579C0 9.92129 2.87093 12.7916 6.39721 12.7916C8.00067 12.7916 9.46773 12.1996 10.5922 11.2217L14.2382 14.867C14.3247 14.9534 14.4411 15 14.5542 15C14.6673 15 14.7838 14.9568 14.8703 14.867C15.0432 14.694 15.0432 14.408 14.8703 14.235ZM0.894877 6.39579C0.894877 3.36253 3.36327 0.898004 6.39388 0.898004C9.42781 0.898004 11.8929 3.36585 11.8929 6.39579C11.8929 9.42572 9.42781 11.8969 6.39388 11.8969C3.36327 11.8969 0.894877 9.42905 0.894877 6.39579Z" fill="#687C94"/>
<path d="M14.8703 14.235L13.4562 15.6494L13.4562 15.6494L14.8703 14.235ZM11.2242 10.5898L9.71534 9.27706L8.49055 10.6848L9.81016 12.0042L11.2242 10.5898ZM10.5922 11.2217L12.0062 9.80736L10.6872 8.48862L9.27974 9.71257L10.5922 11.2217ZM14.2382 14.867L12.8241 16.2813L12.8241 16.2813L14.2382 14.867ZM14.8703 14.867L13.4562 13.4526L13.4429 13.4659L13.4298 13.4795L14.8703 14.867ZM6.39388 11.8969V13.8969V11.8969ZM16.2843 12.8207L12.6383 9.17543L9.81016 12.0042L13.4562 15.6494L16.2843 12.8207ZM12.7331 11.9025C14.0149 10.4293 14.7944 8.50081 14.7944 6.39579H10.7944C10.7944 7.49698 10.3897 8.50198 9.71534 9.27706L12.7331 11.9025ZM14.7944 6.39579C14.7944 1.7613 11.027 -2 6.39721 -2V2C8.82001 2 10.7944 3.97263 10.7944 6.39579L14.7944 6.39579ZM6.39721 -2C1.76277 -2 -2 1.76598 -2 6.39579H2C2 3.9746 3.97243 2 6.39721 2V-2ZM-2 6.39579C-2 11.0263 1.76677 14.7916 6.39721 14.7916V10.7916C3.97508 10.7916 2 8.8163 2 6.39579H-2ZM6.39721 14.7916C8.50232 14.7916 10.431 14.0123 11.9046 12.7309L9.27974 9.71257C8.50445 10.3868 7.49901 10.7916 6.39721 10.7916V14.7916ZM9.17809 12.6361L12.8241 16.2813L15.6522 13.4526L12.0062 9.80736L9.17809 12.6361ZM12.8241 16.2813C13.2837 16.7408 13.9079 17 14.5542 17V13C14.9743 13 15.3657 13.1661 15.6522 13.4526L12.8241 16.2813ZM14.5542 17C15.1664 17 15.8176 16.7664 16.3107 16.2544L13.4298 13.4795C13.75 13.1471 14.1682 13 14.5542 13V17ZM16.2843 16.2813C17.2386 15.3273 17.2386 13.7747 16.2843 12.8207L13.4562 15.6494C12.8479 15.0413 12.8479 14.0607 13.4562 13.4526L16.2843 16.2813ZM2.89488 6.39579C2.89488 4.4683 4.46664 2.898 6.39388 2.898V-1.102C2.25991 -1.102 -1.10512 2.25675 -1.10512 6.39579H2.89488ZM6.39388 2.898C8.32287 2.898 9.89288 4.47005 9.89288 6.39579H13.8929C13.8929 2.26165 10.5328 -1.102 6.39388 -1.102V2.898ZM9.89288 6.39579C9.89288 8.3231 8.3213 9.8969 6.39388 9.8969V13.8969C10.5343 13.8969 13.8929 10.5283 13.8929 6.39579H9.89288ZM6.39388 9.8969C4.46821 9.8969 2.89488 8.32485 2.89488 6.39579H-1.10512C-1.10512 10.5332 2.25833 13.8969 6.39388 13.8969L6.39388 9.8969Z" fill="#989898" mask="url(#path-1-inside-1_359_2)"/>
</svg>
